<svg width="131" height="28" viewBox="0 0 131 28" fill="none" xmlns="http://www.w3.org/2000/svg">
<path d="M2.74097 12.4721V26.1613H5.60512V12.4721H9.04787V9.963H5.60512V7.77148C5.60512 7.05155 5.78991 6.49044 6.15948 6.08813C6.52905 5.68582 7.06287 5.48466 7.76094 5.48466H10.5943V2.97552H7.20659C5.81044 2.97552 4.712 3.38842 3.91127 4.21421C3.13107 5.01883 2.74097 6.14106 2.74097 7.58091V9.963H0V12.4721H2.74097Z" fill="#231917"/>
<path d="M11.6969 9.963V12.4721H13.3661V26.1613H16.1994V9.963H11.6969Z" fill="#231917"/>
<path d="M20.3965 16.7917V26.1613H23.2299V16.8234C23.2299 15.8494 23.4352 15.013 23.8458 14.3143C24.277 13.5944 24.8314 13.0438 25.5089 12.6627C26.207 12.2816 26.9461 12.091 27.7263 12.091C28.5065 12.091 29.2354 12.2816 29.9129 12.6627C30.611 13.0438 31.1654 13.5944 31.576 14.3143C32.0071 15.013 32.2227 15.8494 32.2227 16.8234V26.1613H35.0561V16.7917C35.0561 15.3518 34.7379 14.092 34.1014 13.0121C33.4854 11.9322 32.6231 11.0958 31.5144 10.5029C30.4262 9.8889 29.1635 9.58187 27.7263 9.58187C26.3096 9.58187 25.0469 9.8889 23.9382 10.5029C22.8295 11.0958 21.9569 11.9322 21.3205 13.0121C20.7045 14.092 20.3965 15.3518 20.3965 16.7917Z" fill="#231917"/>
<path d="M39.2467 26.1613V16.4105C39.2467 15.1613 39.5239 14.0179 40.0782 12.9803C40.6326 11.9428 41.4333 11.117 42.4804 10.5029C43.5275 9.8889 44.7902 9.58187 46.2685 9.58187C46.9871 9.58187 47.7057 9.68774 48.4243 9.89948C49.1429 10.09 49.8102 10.4288 50.4262 10.9158C51.0421 11.3817 51.5349 12.0169 51.9044 12.8215H51.9352C52.3459 12.0169 52.8591 11.3817 53.4751 10.9158C54.091 10.4288 54.7583 10.09 55.4769 9.89948C56.1955 9.68774 56.9244 9.58187 57.6635 9.58187C59.1213 9.58187 60.3737 9.8889 61.4208 10.5029C62.4679 11.117 63.2687 11.9428 63.823 12.9803C64.3774 14.0179 64.6545 15.1613 64.6545 16.4105V26.1613H61.8212V16.4105C61.8212 15.6059 61.6364 14.8754 61.2668 14.219C60.8973 13.5626 60.3942 13.0438 59.7578 12.6627C59.1418 12.2816 58.4335 12.091 57.6327 12.091C56.8525 12.091 56.1339 12.2922 55.4769 12.6945C54.8199 13.0756 54.2964 13.5944 53.9063 14.2508C53.5367 14.886 53.3519 15.6059 53.3519 16.4105V26.1613H50.5185V16.4105C50.5185 15.6059 50.3235 14.886 49.9334 14.2508C49.5638 13.5944 49.0505 13.0756 48.3935 12.6945C47.757 12.2922 47.0384 12.091 46.2377 12.091C45.4575 12.091 44.7492 12.2816 44.1127 12.6627C43.4967 13.0438 43.004 13.5626 42.6344 14.219C42.2648 14.8754 42.0801 15.6059 42.0801 16.4105V26.1613H39.2467Z" fill="#231917"/>
<path fill-rule="evenodd" clip-rule="evenodd" d="M71.4208 25.4307C72.5295 26.1718 73.8436 26.5424 75.3629 26.5424C76.41 26.5424 77.3237 26.3624 78.1039 26.0024C78.8841 25.6425 79.5308 25.1872 80.0441 24.6367C80.5779 24.065 80.9988 23.4721 81.3068 22.8581H81.3684V26.1613H84.2325V17.9668C84.2325 16.4 83.904 14.9813 83.247 13.7108C82.6105 12.4404 81.6969 11.4346 80.5061 10.6935C79.3152 9.95242 77.8883 9.58187 76.2252 9.58187C74.5006 9.58187 73.0223 9.963 71.7904 10.7253C70.5585 11.4664 69.614 12.4827 68.957 13.7744C68.3 15.0448 67.9715 16.4741 67.9715 18.0621C67.9715 19.629 68.2692 21.0583 68.8646 22.3499C69.4601 23.6415 70.3121 24.6685 71.4208 25.4307ZM78.8122 23.271C78.032 23.7792 77.1286 24.0332 76.102 24.0332C74.9933 24.0332 74.0489 23.7686 73.2687 23.2392C72.4885 22.7099 71.8931 22.0005 71.4824 21.1112C71.0718 20.2007 70.8665 19.1949 70.8665 18.0939C70.8665 16.9505 71.0718 15.9341 71.4824 15.0448C71.9136 14.1343 72.5193 13.4144 73.2995 12.885C74.1002 12.3557 75.0549 12.091 76.1636 12.091C77.2107 12.091 78.1244 12.3557 78.9046 12.885C79.6848 13.3932 80.2802 14.092 80.6908 14.9813C81.122 15.8706 81.3376 16.8764 81.3376 17.9986C81.3376 19.142 81.1117 20.1795 80.66 21.1112C80.2289 22.0217 79.6129 22.7416 78.8122 23.271Z" fill="#231917"/>
<path d="M88.3435 26.1613V14.5684C88.3435 13.1285 88.7336 12.0063 89.5138 11.2017C90.3145 10.3759 91.413 9.963 92.8091 9.963H96.0429V12.4721H93.3327C92.6551 12.4721 92.1213 12.6733 91.7312 13.0756C91.3617 13.4779 91.1769 14.039 91.1769 14.759V26.1613H88.3435Z" fill="#231917"/>
<path d="M98.138 23.6521V26.1613H105.991C106.956 26.1613 107.798 25.9283 108.517 25.4625C109.256 24.9967 109.831 24.3932 110.241 23.6521C110.652 22.8898 110.857 22.0746 110.857 21.2065C110.857 20.1901 110.652 19.3326 110.241 18.6338C109.851 17.9351 109.266 17.4057 108.486 17.0458C107.726 16.6646 106.782 16.4741 105.653 16.4741H102.634C101.936 16.4741 101.392 16.2835 101.002 15.9024C100.633 15.5001 100.448 15.0342 100.448 14.5049C100.448 13.9543 100.633 13.4779 101.002 13.0756C101.372 12.6733 101.875 12.4721 102.511 12.4721H109.471V9.963H102.234C101.331 9.963 100.53 10.1853 99.8319 10.63C99.1338 11.0535 98.5897 11.6146 98.1996 12.3133C97.8095 13.0121 97.6145 13.7744 97.6145 14.6002C97.6145 15.5742 97.8198 16.4 98.2304 17.0775C98.6616 17.7551 99.2467 18.2739 99.9859 18.6338C100.746 18.9726 101.628 19.142 102.634 19.142H105.807C106.279 19.142 106.679 19.2479 107.008 19.4596C107.357 19.6502 107.613 19.9149 107.778 20.2537C107.942 20.5713 108.024 20.9206 108.024 21.3018C108.024 21.7041 107.932 22.0852 107.747 22.4452C107.562 22.8051 107.285 23.1016 106.915 23.3345C106.566 23.5462 106.145 23.6521 105.653 23.6521H98.138Z" fill="#231917"/>
<ellipse cx="14.7214" cy="4.25212" rx="1.80607" ry="1.8626" fill="#231917"/>
<path d="M130.931 0H108.215C108.215 0 110.781 0.807635 112.322 1.57601C112.947 1.88808 113.305 2.05565 113.893 2.43766C114.448 2.79859 114.747 3.02547 115.249 3.46134C115.753 3.89868 116.027 4.16 116.463 4.66912C116.911 5.19115 117.13 5.51433 117.499 6.09784C117.871 6.68684 118.06 7.03295 118.356 7.66649C118.668 8.33634 118.812 8.72914 119.041 9.43398C119.287 10.1907 119.394 10.6271 119.555 11.4077C119.725 12.2304 119.786 12.7001 119.877 13.536C119.966 14.3554 119.972 14.8192 120.02 15.6423V28L130.931 0Z" fill="#FF6235"/>
</svg>
