<svg width="174" height="40" viewBox="0 0 174 40" fill="none" xmlns="http://www.w3.org/2000/svg">
<path d="M48.6685 31.298C47.7889 31.298 47.1079 31.0467 46.6255 30.5442C46.1432 30.0417 45.902 29.3306 45.902 28.411V13.3501C45.902 12.4209 46.1432 11.7051 46.6255 11.2026C47.1079 10.7001 47.7889 10.4488 48.6685 10.4488H57.8335C58.5807 10.4488 59.1765 10.6432 59.6211 11.0319C60.0656 11.4207 60.2879 11.9706 60.2879 12.6817C60.2879 13.3833 60.0609 13.9284 59.6069 14.3172C59.1529 14.7059 58.5617 14.9003 57.8335 14.9003H51.4208V19.2663H57.195C57.8949 19.2663 58.4482 19.4512 58.8549 19.821C59.2711 20.1908 59.4792 20.7075 59.4792 21.3712C59.4792 22.0349 59.2758 22.5516 58.8691 22.9213C58.4624 23.2911 57.9044 23.476 57.195 23.476H51.4208V28.411C51.4208 29.3306 51.1796 30.0417 50.6973 30.5442C50.2149 31.0467 49.5387 31.298 48.6685 31.298Z" fill="#FFB59D"/>
<path d="M64.8516 31.298C63.972 31.298 63.291 31.0467 62.8087 30.5442C62.3263 30.0417 62.0851 29.3306 62.0851 28.411V13.0088C62.0851 12.0796 62.3263 11.3685 62.8087 10.8755C63.291 10.373 63.972 10.1217 64.8516 10.1217C65.7218 10.1217 66.398 10.373 66.8804 10.8755C67.3628 11.3685 67.604 12.0796 67.604 13.0088V28.411C67.604 29.3306 67.3628 30.0417 66.8804 30.5442C66.398 31.0467 65.7218 31.298 64.8516 31.298Z" fill="#FFB59D"/>
<path d="M73.0899 31.298C72.2671 31.298 71.6239 31.0657 71.1605 30.6011C70.7065 30.127 70.4795 29.4444 70.4795 28.5532V12.7243C70.4795 11.8805 70.7065 11.2358 71.1605 10.7902C71.6145 10.3445 72.2671 10.1217 73.1183 10.1217C73.6385 10.1217 74.102 10.2403 74.5087 10.4773C74.9154 10.7143 75.3221 11.1078 75.7288 11.6577L83.2054 21.8689H83.3189V12.8665C83.3189 11.9753 83.5507 11.2974 84.0141 10.8328C84.4776 10.3588 85.116 10.1217 85.9294 10.1217C86.7617 10.1217 87.4049 10.3588 87.8589 10.8328C88.3223 11.2974 88.554 11.9753 88.554 12.8665V28.7096C88.554 29.544 88.3318 30.1839 87.8872 30.6296C87.4427 31.0752 86.8043 31.298 85.972 31.298C85.4234 31.298 84.9457 31.1795 84.539 30.9424C84.1418 30.7054 83.7446 30.3167 83.3473 29.7762L75.8139 19.4228H75.7004V28.5532C75.7004 29.4444 75.4687 30.127 75.0052 30.6011C74.5512 31.0657 73.9128 31.298 73.0899 31.298Z" fill="#FFB59D"/>
<path d="M93.8556 31.298C93.0894 31.298 92.4936 31.0752 92.068 30.6296C91.6518 30.1839 91.4437 29.5534 91.4437 28.7381V13.7341C91.4437 12.5774 91.7511 11.6861 92.3659 11.0604C92.9807 10.4346 93.865 10.1217 95.0189 10.1217C95.9836 10.1217 96.7498 10.3351 97.3173 10.7617C97.8942 11.1884 98.3813 11.9184 98.7785 12.9519L102.765 23.1489H102.879L106.837 12.9519C107.234 11.9184 107.717 11.1884 108.284 10.7617C108.861 10.3351 109.637 10.1217 110.611 10.1217C111.755 10.1217 112.635 10.4346 113.25 11.0604C113.874 11.6861 114.186 12.5774 114.186 13.7341V28.7381C114.186 29.5534 113.973 30.1839 113.547 30.6296C113.131 31.0752 112.535 31.298 111.76 31.298C110.994 31.298 110.398 31.0752 109.972 30.6296C109.547 30.1839 109.334 29.5534 109.334 28.7381V18.5268H109.22L104.865 29.4207C104.487 30.3878 103.806 30.8713 102.822 30.8713C101.81 30.8713 101.119 30.3878 100.751 29.4207L96.3951 18.5268H96.2816V28.7381C96.2816 29.5534 96.0688 30.1839 95.6432 30.6296C95.227 31.0752 94.6311 31.298 93.8556 31.298Z" fill="#FFB59D"/>
<path d="M119.218 31.298C118.338 31.298 117.648 31.0657 117.147 30.6011C116.645 30.127 116.395 29.4728 116.395 28.6385C116.395 28.117 116.527 27.5055 116.792 26.8039L121.658 13.3927C122.055 12.2645 122.604 11.4396 123.304 10.9182C124.004 10.3872 124.897 10.1217 125.985 10.1217C127.139 10.1217 128.071 10.3825 128.78 10.9039C129.489 11.4159 130.052 12.2455 130.468 13.3927L135.377 26.8039C135.623 27.4771 135.746 28.0839 135.746 28.6243C135.746 29.4017 135.481 30.0417 134.952 30.5442C134.431 31.0467 133.774 31.298 132.979 31.298C132.166 31.298 131.532 31.1036 131.078 30.7149C130.624 30.3167 130.279 29.6672 130.043 28.7665L129.489 26.8466H122.623L122.055 28.6812C121.79 29.6103 121.436 30.2787 120.991 30.6864C120.547 31.0941 119.956 31.298 119.218 31.298ZM123.701 22.6796H128.298L126.014 14.9571H125.9L123.701 22.6796Z" fill="#FFB59D"/>
<path d="M140.721 31.3122C139.851 31.3122 139.175 31.0609 138.692 30.5584C138.21 30.0465 137.969 29.3306 137.969 28.411V13.3501C137.969 12.4209 138.21 11.7051 138.692 11.2026C139.175 10.7001 139.851 10.4488 140.721 10.4488H146.864C148.614 10.4488 150.085 10.7238 151.277 11.2737C152.468 11.8141 153.367 12.5963 153.972 13.6203C154.577 14.6348 154.88 15.8626 154.88 17.3037C154.88 18.4794 154.62 19.5697 154.1 20.5747C153.589 21.5798 152.823 22.3572 151.801 22.9071L154.171 26.875C154.417 27.2827 154.573 27.6193 154.639 27.8847C154.715 28.1502 154.752 28.4489 154.752 28.7807C154.752 29.5203 154.492 30.127 153.972 30.6011C153.461 31.0752 152.804 31.3122 152 31.3122C151.556 31.3122 151.177 31.2458 150.865 31.1131C150.553 30.9898 150.265 30.767 150 30.4447C149.744 30.1223 149.456 29.6814 149.134 29.122L146.24 23.9169H143.488V28.411C143.488 29.3306 143.247 30.0465 142.764 30.5584C142.282 31.0609 141.601 31.3122 140.721 31.3122ZM143.488 20.1765H146.311C147.219 20.1765 147.933 19.9253 148.453 19.4228C148.973 18.9203 149.234 18.2424 149.234 17.3891C149.234 16.5642 148.969 15.891 148.439 15.3696C147.909 14.8481 147.2 14.5874 146.311 14.5874H143.488V20.1765Z" fill="#FFB59D"/>
<path d="M165.261 31.3264C163.766 31.3264 162.471 31.1605 161.373 30.8287C160.276 30.4873 159.378 30.0322 158.678 29.4634C157.987 28.8945 157.5 28.264 157.216 27.5719C157.122 27.3538 157.051 27.131 157.004 26.9034C156.956 26.6759 156.933 26.4531 156.933 26.235C156.933 25.5524 157.155 25.0025 157.6 24.5853C158.054 24.1586 158.626 23.9453 159.316 23.9453C159.846 23.9453 160.305 24.0496 160.692 24.2582C161.08 24.4573 161.454 24.8271 161.813 25.3675C162.05 25.7562 162.343 26.0738 162.693 26.3203C163.052 26.5669 163.454 26.747 163.899 26.8608C164.353 26.9746 164.835 27.0314 165.346 27.0314C165.989 27.0314 166.547 26.9461 167.02 26.7754C167.493 26.6048 167.862 26.3678 168.126 26.0644C168.391 25.761 168.524 25.4196 168.524 25.0404C168.524 24.5 168.283 24.0828 167.8 23.7889C167.327 23.4855 166.495 23.2247 165.303 23.0067L163.218 22.6227C161.175 22.2434 159.624 21.5561 158.564 20.5605C157.505 19.5555 156.975 18.2661 156.975 16.6922C156.975 15.3459 157.33 14.1797 158.039 13.1936C158.749 12.2076 159.723 11.4444 160.962 10.9039C162.201 10.3635 163.62 10.0933 165.218 10.0933C166.542 10.0933 167.734 10.2545 168.793 10.5768C169.853 10.8897 170.746 11.3496 171.475 11.9563C172.212 12.5631 172.752 13.2979 173.092 14.1607C173.243 14.54 173.319 14.9334 173.319 15.3411C173.319 15.9764 173.106 16.4931 172.681 16.8913C172.264 17.28 171.706 17.4744 171.006 17.4744C170.42 17.4744 169.924 17.3606 169.517 17.1331C169.11 16.9055 168.746 16.5358 168.424 16.0238C168.197 15.635 167.928 15.3222 167.616 15.0851C167.313 14.8386 166.963 14.6632 166.566 14.5589C166.178 14.4452 165.748 14.3883 165.275 14.3883C164.67 14.3883 164.159 14.4736 163.743 14.6443C163.326 14.8054 163.01 15.0283 162.792 15.3127C162.575 15.5971 162.466 15.9242 162.466 16.294C162.466 16.806 162.707 17.2089 163.189 17.5028C163.672 17.7968 164.447 18.048 165.516 18.2566L167.602 18.6406C169.796 19.0483 171.408 19.7214 172.439 20.6601C173.48 21.5892 174 22.8739 174 24.5142C174 25.8984 173.655 27.1026 172.964 28.1265C172.274 29.1505 171.276 29.9422 169.971 30.5016C168.666 31.0515 167.096 31.3264 165.261 31.3264Z" fill="#FFB59D"/>
<path d="M32.0604 4.10348C28.916 1.69289 24.6094 2.83897 21.8103 5.64491L17.2479 10.2184C15.7104 11.7597 15.7104 14.2585 17.2479 15.7998C18.7854 17.341 21.2782 17.341 22.8158 15.7998L25.6779 12.9307C26.0662 12.5414 26.6957 12.5414 27.084 12.9307C27.4723 13.3199 27.4723 13.951 27.084 14.3402L17.2148 24.2334C15.7034 25.7485 15.7034 28.205 17.2148 29.7201C18.7262 31.2351 21.1767 31.2351 22.6881 29.7201L32.491 19.8932C32.8793 19.504 33.5088 19.504 33.8971 19.8932C34.2854 20.2825 34.2854 20.9135 33.8971 21.3028L24.4663 30.7566C22.7493 32.4777 22.7494 35.2681 24.4663 36.9892C25.652 38.1778 27.4299 38.624 28.927 37.8667C35.4377 34.5736 39.9029 27.8095 39.9029 20C39.9029 13.5191 36.8278 7.75819 32.0604 4.10348Z" fill="#F85E26"/>
<path d="M15.1459 23.4884C13.224 25.4149 13.224 28.5385 15.1458 30.4651L21.174 36.5079C22.4823 37.8194 21.8017 40 19.9514 40C8.93256 40 0 31.0457 0 20C0 8.9543 8.93256 0 19.9514 0C21.79 0 22.4676 2.16694 21.1675 3.4702L5.39507 19.2811C5.00678 19.6703 5.00678 20.3014 5.39507 20.6906C5.78335 21.0798 6.41288 21.0798 6.80116 20.6906L10.274 17.2093C11.8115 15.668 14.3043 15.668 15.8418 17.2093C17.3793 18.7506 17.3794 21.2494 15.8418 22.7907L15.1459 23.4884Z" fill="#F85E26"/>
</svg>
