<svg width="24" height="28" viewBox="0 0 24 28" fill="none" xmlns="http://www.w3.org/2000/svg">
<path d="M23.1 0H0C0 0 2.60927 0.807635 4.17557 1.57601C4.81171 1.88808 5.17531 2.05565 5.77318 2.43766C6.33805 2.79859 6.64206 3.02547 7.15294 3.46134C7.66555 3.89868 7.94393 4.16 8.38746 4.66912C8.84223 5.19115 9.0653 5.51433 9.44043 6.09784C9.81908 6.68684 10.0111 7.03295 10.3119 7.66649C10.6298 8.33634 10.7759 8.72914 11.009 9.43398C11.2592 10.1907 11.3679 10.6271 11.5318 11.4077C11.7047 12.2304 11.7662 12.7001 11.8586 13.536C11.9493 14.3554 11.9554 14.8192 12.0039 15.6423V28L23.1 0Z" fill="#FF6235"/>
</svg>
