<svg width="40" height="40" viewBox="0 0 40 40" fill="none" xmlns="http://www.w3.org/2000/svg">
<path d="M32.1385 4.10348C28.9863 1.69289 24.6693 2.83897 21.8634 5.64491L17.2899 10.2184C15.7487 11.7597 15.7487 14.2585 17.2899 15.7998C18.8312 17.341 21.33 17.341 22.8713 15.7998L25.7404 12.9307C26.1297 12.5414 26.7607 12.5414 27.1499 12.9307C27.5392 13.3199 27.5392 13.951 27.1499 14.3402L17.2567 24.2334C15.7416 25.7485 15.7416 28.205 17.2567 29.7201C18.7718 31.2351 21.2282 31.2351 22.7433 29.7201L32.5701 19.8932C32.9593 19.504 33.5904 19.504 33.9796 19.8932C34.3689 20.2825 34.3689 20.9135 33.9796 21.3028L24.5258 30.7566C22.8047 32.4777 22.8047 35.2681 24.5258 36.9892C25.7145 38.1778 27.4966 38.624 28.9974 37.8667C35.524 34.5736 40 27.8095 40 20C40 13.5191 36.9174 7.75819 32.1385 4.10348Z" fill="#F85E26"/>
<path d="M15.1827 23.4884C13.2561 25.4149 13.2562 28.5385 15.1827 30.4651L21.2255 36.5079C22.537 37.8194 21.8547 40 20 40C8.9543 40 0 31.0457 0 20C0 8.9543 8.9543 0 20 0C21.8431 0 22.5223 2.16694 21.2191 3.4702L5.4082 19.2811C5.01897 19.6703 5.01897 20.3014 5.4082 20.6906C5.79743 21.0798 6.42849 21.0798 6.81771 20.6906L10.299 17.2093C11.8403 15.668 14.3391 15.668 15.8804 17.2093C17.4217 18.7506 17.4217 21.2494 15.8804 22.7907L15.1827 23.4884Z" fill="#F85E26"/>
</svg>
