<svg width="176" height="40" viewBox="0 0 176 40" fill="none" xmlns="http://www.w3.org/2000/svg">
<path d="M49.2279 31.298C48.3382 31.298 47.6494 31.0467 47.1615 30.5442C46.6736 30.0417 46.4296 29.3306 46.4296 28.411V13.3501C46.4296 12.4209 46.6736 11.7051 47.1615 11.2026C47.6494 10.7001 48.3382 10.4488 49.2279 10.4488H58.4982C59.254 10.4488 59.8567 10.6432 60.3064 11.0319C60.756 11.4207 60.9808 11.9706 60.9808 12.6817C60.9808 13.3833 60.7512 13.9284 60.292 14.3172C59.8328 14.7059 59.2349 14.9003 58.4982 14.9003H52.0119V19.2663H57.8525C58.5604 19.2663 59.1201 19.4512 59.5314 19.821C59.9524 20.1908 60.1629 20.7075 60.1629 21.3712C60.1629 22.0349 59.9572 22.5516 59.5458 22.9213C59.1344 23.2911 58.57 23.476 57.8525 23.476H52.0119V28.411C52.0119 29.3306 51.7679 30.0417 51.28 30.5442C50.7921 31.0467 50.1081 31.298 49.2279 31.298Z" fill="#431202"/>
<path d="M65.5971 31.298C64.7074 31.298 64.0185 31.0467 63.5306 30.5442C63.0427 30.0417 62.7988 29.3306 62.7988 28.411V13.0088C62.7988 12.0796 63.0427 11.3685 63.5306 10.8755C64.0185 10.373 64.7074 10.1217 65.5971 10.1217C66.4772 10.1217 67.1613 10.373 67.6492 10.8755C68.1371 11.3685 68.381 12.0796 68.381 13.0088V28.411C68.381 29.3306 68.1371 30.0417 67.6492 30.5442C67.1613 31.0467 66.4772 31.298 65.5971 31.298Z" fill="#431202"/>
<path d="M73.9301 31.298C73.0977 31.298 72.4472 31.0657 71.9784 30.6011C71.5192 30.127 71.2896 29.4444 71.2896 28.5532V12.7243C71.2896 11.8805 71.5192 11.2358 71.9784 10.7902C72.4376 10.3445 73.0977 10.1217 73.9588 10.1217C74.4849 10.1217 74.9537 10.2403 75.3651 10.4773C75.7765 10.7143 76.1878 11.1078 76.5992 11.6577L84.1618 21.8689H84.2766V12.8665C84.2766 11.9753 84.511 11.2974 84.9798 10.8328C85.4486 10.3588 86.0943 10.1217 86.9171 10.1217C87.759 10.1217 88.4095 10.3588 88.8687 10.8328C89.3375 11.2974 89.5719 11.9753 89.5719 12.8665V28.7096C89.5719 29.544 89.3471 30.1839 88.8974 30.6296C88.4478 31.0752 87.802 31.298 86.9601 31.298C86.4053 31.298 85.9221 31.1795 85.5108 30.9424C85.1089 30.7054 84.7071 30.3167 84.3053 29.7762L76.6853 19.4228H76.5705V28.5532C76.5705 29.4444 76.3361 30.127 75.8673 30.6011C75.4081 31.0657 74.7624 31.298 73.9301 31.298Z" fill="#431202"/>
<path d="M94.9344 31.298C94.1595 31.298 93.5567 31.0752 93.1262 30.6296C92.7053 30.1839 92.4948 29.5534 92.4948 28.7381V13.7341C92.4948 12.5774 92.8057 11.6861 93.4276 11.0604C94.0494 10.4346 94.9439 10.1217 96.1111 10.1217C97.0869 10.1217 97.8618 10.3351 98.4359 10.7617C99.0194 11.1884 99.5121 11.9184 99.9139 12.9519L103.946 23.1489H104.061L108.065 12.9519C108.467 11.9184 108.955 11.1884 109.529 10.7617C110.112 10.3351 110.897 10.1217 111.882 10.1217C113.04 10.1217 113.929 10.4346 114.551 11.0604C115.183 11.6861 115.498 12.5774 115.498 13.7341V28.7381C115.498 29.5534 115.283 30.1839 114.853 30.6296C114.432 31.0752 113.829 31.298 113.044 31.298C112.27 31.298 111.667 31.0752 111.236 30.6296C110.806 30.1839 110.591 29.5534 110.591 28.7381V18.5268H110.476L106.07 29.4207C105.688 30.3878 104.999 30.8713 104.004 30.8713C102.98 30.8713 102.282 30.3878 101.909 29.4207L97.5031 18.5268H97.3883V28.7381C97.3883 29.5534 97.173 30.1839 96.7425 30.6296C96.3216 31.0752 95.7189 31.298 94.9344 31.298Z" fill="#431202"/>
<path d="M120.588 31.298C119.698 31.298 119 31.0657 118.493 30.6011C117.986 30.127 117.732 29.4728 117.732 28.6385C117.732 28.117 117.866 27.5055 118.134 26.8039L123.056 13.3927C123.458 12.2645 124.013 11.4396 124.721 10.9182C125.429 10.3872 126.333 10.1217 127.433 10.1217C128.6 10.1217 129.543 10.3825 130.26 10.9039C130.978 11.4159 131.547 12.2455 131.968 13.3927L136.933 26.8039C137.182 27.4771 137.306 28.0839 137.306 28.6243C137.306 29.4017 137.038 30.0417 136.503 30.5442C135.977 31.0467 135.312 31.298 134.508 31.298C133.685 31.298 133.044 31.1036 132.585 30.7149C132.126 30.3167 131.777 29.6672 131.537 28.7665L130.978 26.8466H124.032L123.458 28.6812C123.19 29.6103 122.832 30.2787 122.382 30.6864C121.932 31.0941 121.334 31.298 120.588 31.298ZM125.123 22.6796H129.772L127.462 14.9571H127.347L125.123 22.6796Z" fill="#431202"/>
<path d="M142.339 31.3122C141.459 31.3122 140.775 31.0609 140.287 30.5584C139.799 30.0465 139.555 29.3306 139.555 28.411V13.3501C139.555 12.4209 139.799 11.7051 140.287 11.2026C140.775 10.7001 141.459 10.4488 142.339 10.4488H148.552C150.322 10.4488 151.81 10.7238 153.015 11.2737C154.221 11.8141 155.13 12.5963 155.742 13.6203C156.354 14.6348 156.66 15.8626 156.66 17.3037C156.66 18.4794 156.397 19.5697 155.871 20.5748C155.354 21.5798 154.58 22.3572 153.546 22.9071L155.943 26.875C156.192 27.2827 156.349 27.6193 156.416 27.8847C156.493 28.1502 156.531 28.4489 156.531 28.7807C156.531 29.5203 156.268 30.127 155.742 30.6011C155.225 31.0752 154.56 31.3122 153.747 31.3122C153.298 31.3122 152.915 31.2458 152.599 31.1131C152.283 30.9898 151.992 30.767 151.724 30.4447C151.466 30.1223 151.174 29.6814 150.848 29.122L147.921 23.9169H145.137V28.411C145.137 29.3306 144.893 30.0465 144.405 30.5584C143.917 31.0609 143.228 31.3122 142.339 31.3122ZM145.137 20.1765H147.993C148.911 20.1765 149.633 19.9253 150.16 19.4228C150.686 18.9203 150.949 18.2424 150.949 17.3891C150.949 16.5642 150.681 15.891 150.145 15.3696C149.61 14.8481 148.892 14.5874 147.993 14.5874H145.137V20.1765Z" fill="#431202"/>
<path d="M167.16 31.3264C165.649 31.3264 164.338 31.1605 163.228 30.8287C162.118 30.4873 161.21 30.0322 160.502 29.4634C159.803 28.8945 159.311 28.264 159.024 27.5719C158.928 27.3538 158.856 27.131 158.808 26.9034C158.76 26.6759 158.737 26.4531 158.737 26.235C158.737 25.5524 158.961 25.0025 159.411 24.5853C159.87 24.1586 160.449 23.9453 161.147 23.9453C161.683 23.9453 162.147 24.0496 162.539 24.2582C162.932 24.4573 163.31 24.8271 163.673 25.3675C163.912 25.7562 164.209 26.0738 164.563 26.3204C164.926 26.5669 165.333 26.747 165.783 26.8608C166.242 26.9746 166.73 27.0314 167.246 27.0314C167.897 27.0314 168.461 26.9461 168.94 26.7754C169.418 26.6048 169.791 26.3678 170.059 26.0644C170.327 25.761 170.461 25.4196 170.461 25.0404C170.461 24.5 170.217 24.0828 169.729 23.7889C169.251 23.4855 168.409 23.2247 167.203 23.0067L165.094 22.6227C163.027 22.2434 161.458 21.5561 160.387 20.5605C159.315 19.5555 158.78 18.2661 158.78 16.6922C158.78 15.3459 159.138 14.1797 159.856 13.1936C160.573 12.2076 161.559 11.4444 162.812 10.9039C164.065 10.3635 165.5 10.0933 167.117 10.0933C168.457 10.0933 169.662 10.2545 170.733 10.5768C171.805 10.8897 172.709 11.3496 173.446 11.9563C174.192 12.5631 174.737 13.2979 175.082 14.1607C175.235 14.54 175.311 14.9334 175.311 15.3411C175.311 15.9764 175.096 16.4931 174.665 16.8913C174.244 17.28 173.68 17.4744 172.972 17.4744C172.379 17.4744 171.877 17.3606 171.465 17.1331C171.054 16.9055 170.686 16.5358 170.36 16.0238C170.131 15.635 169.858 15.3222 169.542 15.0851C169.236 14.8386 168.882 14.6632 168.48 14.5589C168.088 14.4452 167.653 14.3883 167.175 14.3883C166.562 14.3883 166.046 14.4736 165.625 14.6443C165.204 14.8054 164.883 15.0283 164.663 15.3127C164.443 15.5971 164.333 15.9242 164.333 16.294C164.333 16.806 164.577 17.2089 165.065 17.5028C165.553 17.7968 166.337 18.048 167.419 18.2566L169.528 18.6406C171.748 19.0483 173.379 19.7214 174.421 20.6601C175.474 21.5892 176 22.8739 176 24.5142C176 25.8984 175.651 27.1026 174.952 28.1265C174.254 29.1505 173.245 29.9422 171.925 30.5016C170.604 31.0515 169.016 31.3264 167.16 31.3264Z" fill="#431202"/>
<path d="M32.4289 4.10348C29.2483 1.69289 24.8923 2.83897 22.061 5.64492L17.4462 10.2184C15.891 11.7597 15.891 14.2585 17.4462 15.7998C19.0014 17.341 21.5228 17.341 23.078 15.7998L25.9731 12.9307C26.3658 12.5414 27.0026 12.5414 27.3953 12.9307C27.7881 13.3199 27.7881 13.951 27.3953 14.3402L17.4127 24.2334C15.8839 25.7485 15.8839 28.205 17.4127 29.72C18.9414 31.2351 21.4201 31.2351 22.9489 29.7201L32.8645 19.8932C33.2572 19.504 33.894 19.504 34.2867 19.8932C34.6795 20.2825 34.6795 20.9135 34.2867 21.3028L24.7475 30.7566C23.0108 32.4777 23.0108 35.2681 24.7475 36.9892C25.9469 38.1778 27.7452 38.624 29.2595 37.8667C35.8451 34.5736 40.3615 27.8095 40.3615 20C40.3615 13.5191 37.2511 7.75819 32.4289 4.10348Z" fill="#D54509"/>
<path d="M15.3199 23.4884C13.376 25.4149 13.376 28.5385 15.3199 30.4651L21.4174 36.5079C22.7407 37.8194 22.0523 40 20.1808 40C9.03523 40 0 31.0457 0 20C0 8.9543 9.03523 0 20.1808 0C22.0405 0 22.7259 2.16694 21.4109 3.4702L5.45708 19.2811C5.06433 19.6703 5.06433 20.3014 5.45708 20.6906C5.84982 21.0798 6.48659 21.0798 6.87933 20.6906L10.3921 17.2093C11.9473 15.668 14.4687 15.668 16.0239 17.2093C17.5791 18.7506 17.5791 21.2494 16.0239 22.7907L15.3199 23.4884Z" fill="#D54509"/>
</svg>
