<svg width="23" height="28" viewBox="0 0 23 28" fill="none" xmlns="http://www.w3.org/2000/svg">
<path d="M23 0H0C0 0 2.59797 0.807635 4.1575 1.57601C4.79088 1.88808 5.1529 2.05565 5.74819 2.43766C6.31061 2.79859 6.6133 3.02547 7.12197 3.46134C7.63236 3.89868 7.90954 4.16 8.35115 4.66912C8.80395 5.19115 9.02606 5.51433 9.39956 6.09784C9.77658 6.68684 9.9678 7.03295 10.2672 7.66649C10.5838 8.33634 10.7293 8.72914 10.9613 9.43398C11.2105 10.1907 11.3187 10.6271 11.4819 11.4077C11.654 12.2304 11.7152 12.7001 11.8073 13.536C11.8975 14.3554 11.9037 14.8192 11.9519 15.6423V28L23 0Z" fill="#FF6235"/>
</svg>
